# xmcd
#
# Track frame offsets:
#	150
#	18249
#	31842
#	48366
#	66027
#	83781
#	96342
#	112744
#	129798
#	146584
#	160356
#	176315
#
# Disc length: 2595 seconds
#
# Revision: 0
# Processed by: cddbd v1.5.1PL0 Copyright (c) Steve Scherf et al.
# Submitted via: dBpowerAMP V4.0
#
DISCID=8b0a210c
DTITLE=Queen Bees - From the Fountain
DYEAR=2005
DGENRE=Country
TTITLE0=Crossing Muddy Water
TTITLE1=Sailing By
TTITLE2=Ol` 55
TTITLE3=Closer To Fine
TTITLE4=Harvest Moon
TTITLE5=Song For You Far Away
TTITLE6=Queen Bee
TTITLE7=Let It Be Me
TTITLE8=To Make You Feel My Love
TTITLE9=Teach Your Children
TTITLE10=Whole New You
TTITLE11=Farther Along
EXTD=
EXTT0=
EXTT1=
EXTT2=
EXTT3=
EXTT4=
EXTT5=
EXTT6=
EXTT7=
EXTT8=
EXTT9=
EXTT10=
EXTT11=
PLAYORDER=
